#include "myNotes.h"
#include "mySongs.h"

int intro_melody[] = {
    NOTE_E3, NOTE_E3, NOTE_G3, NOTE_E3, NOTE_D3, NOTE_C3, NOTE_B2,
    REST};

int intro_durations[] = {
    1, 4, 3, 3, 3, 1, 1,
    8};

int intro_melody_size = sizeof(intro_melody) / sizeof(intro_melody[0]);

int mario_melody[] = {
    NOTE_E5, NOTE_E5, REST, NOTE_E5, REST, NOTE_C5, NOTE_E5,
    NOTE_G5, REST, NOTE_G4, REST,
    NOTE_C5, NOTE_G4, REST, NOTE_E4,
    NOTE_A4, NOTE_B4, NOTE_AS4, NOTE_A4,
    NOTE_G4, NOTE_E5, NOTE_G5, NOTE_A5, NOTE_F5, NOTE_G5,
    REST, NOTE_E5, NOTE_C5, NOTE_D5, NOTE_B4,
    NOTE_C5, NOTE_G4, REST, NOTE_E4,
    NOTE_A4, NOTE_B4, NOTE_AS4, NOTE_A4,
    NOTE_G4, NOTE_E5, NOTE_G5, NOTE_A5, NOTE_F5, NOTE_G5,
    REST, NOTE_E5, NOTE_C5, NOTE_D5, NOTE_B4,

    REST, NOTE_G5, NOTE_FS5, NOTE_F5, NOTE_DS5, NOTE_E5,
    REST, NOTE_GS4, NOTE_A4, NOTE_C4, REST, NOTE_A4, NOTE_C5, NOTE_D5,
    REST, NOTE_DS5, REST, NOTE_D5,
    NOTE_C5, REST,

    REST, NOTE_G5, NOTE_FS5, NOTE_F5, NOTE_DS5, NOTE_E5,
    REST, NOTE_GS4, NOTE_A4, NOTE_C4, REST, NOTE_A4, NOTE_C5, NOTE_D5,
    REST, NOTE_DS5, REST, NOTE_D5,
    NOTE_C5, REST,

    NOTE_C5, NOTE_C5, NOTE_C5, REST, NOTE_C5, NOTE_D5,
    NOTE_E5, NOTE_C5, NOTE_A4, NOTE_G4,

    NOTE_C5, NOTE_C5, NOTE_C5, REST, NOTE_C5, NOTE_D5, NOTE_E5,
    REST,
    NOTE_C5, NOTE_C5, NOTE_C5, REST, NOTE_C5, NOTE_D5,
    NOTE_E5, NOTE_C5, NOTE_A4, NOTE_G4,
    NOTE_E5, NOTE_E5, REST, NOTE_E5, REST, NOTE_C5, NOTE_E5,
    NOTE_G5, REST, NOTE_G4, REST,
    NOTE_C5, NOTE_G4, REST, NOTE_E4,

    NOTE_A4, NOTE_B4, NOTE_AS4, NOTE_A4,
    NOTE_G4, NOTE_E5, NOTE_G5, NOTE_A5, NOTE_F5, NOTE_G5,
    REST, NOTE_E5, NOTE_C5, NOTE_D5, NOTE_B4,

    NOTE_C5, NOTE_G4, REST, NOTE_E4,
    NOTE_A4, NOTE_B4, NOTE_AS4, NOTE_A4,
    NOTE_G4, NOTE_E5, NOTE_G5, NOTE_A5, NOTE_F5, NOTE_G5,
    REST, NOTE_E5, NOTE_C5, NOTE_D5, NOTE_B4,

    NOTE_E5, NOTE_C5, NOTE_G4, REST, NOTE_GS4,
    NOTE_A4, NOTE_F5, NOTE_F5, NOTE_A4,
    NOTE_D5, NOTE_A5, NOTE_A5, NOTE_A5, NOTE_G5, NOTE_F5,

    NOTE_E5, NOTE_C5, NOTE_A4, NOTE_G4,
    NOTE_E5, NOTE_C5, NOTE_G4, REST, NOTE_GS4,
    NOTE_A4, NOTE_F5, NOTE_F5, NOTE_A4,
    NOTE_B4, NOTE_F5, NOTE_F5, NOTE_F5, NOTE_E5, NOTE_D5,
    NOTE_C5, NOTE_E4, NOTE_E4, NOTE_C4,

    NOTE_E5, NOTE_C5, NOTE_G4, REST, NOTE_GS4,
    NOTE_A4, NOTE_F5, NOTE_F5, NOTE_A4,
    NOTE_D5, NOTE_A5, NOTE_A5, NOTE_A5, NOTE_G5, NOTE_F5,

    NOTE_E5, NOTE_C5, NOTE_A4, NOTE_G4,
    NOTE_E5, NOTE_C5, NOTE_G4, REST, NOTE_GS4,
    NOTE_A4, NOTE_F5, NOTE_F5, NOTE_A4,
    NOTE_B4, NOTE_F5, NOTE_F5, NOTE_F5, NOTE_E5, NOTE_D5,
    NOTE_C5, NOTE_E4, NOTE_E4, NOTE_C4,
    NOTE_C5, NOTE_C5, NOTE_C5, REST, NOTE_C5, NOTE_D5, NOTE_E5,
    REST,

    NOTE_C5, NOTE_C5, NOTE_C5, REST, NOTE_C5, NOTE_D5,
    NOTE_E5, NOTE_C5, NOTE_A4, NOTE_G4,
    NOTE_E5, NOTE_E5, REST, NOTE_E5, REST, NOTE_C5, NOTE_E5,
    NOTE_G5, REST, NOTE_G4, REST,
    NOTE_E5, NOTE_C5, NOTE_G4, REST, NOTE_GS4,
    NOTE_A4, NOTE_F5, NOTE_F5, NOTE_A4,
    NOTE_D5, NOTE_A5, NOTE_A5, NOTE_A5, NOTE_G5, NOTE_F5,

    NOTE_E5, NOTE_C5, NOTE_A4, NOTE_G4,
    NOTE_E5, NOTE_C5, NOTE_G4, REST, NOTE_GS4,
    NOTE_A4, NOTE_F5, NOTE_F5, NOTE_A4,
    NOTE_B4, NOTE_F5, NOTE_F5, NOTE_F5, NOTE_E5, NOTE_D5,
    NOTE_C5, NOTE_E4, NOTE_E4, NOTE_C4,

    NOTE_C5, NOTE_G4, NOTE_E4,
    NOTE_A4, NOTE_B4, NOTE_A4, NOTE_GS4, NOTE_AS4, NOTE_GS4,
    NOTE_G4, NOTE_D4, NOTE_E4};

int mario_durations[] = {
    8, 8, 8, 8, 8, 8, 8,
    4, 4, 8, 4,
    4, 8, 4, 4,
    4, 4, 8, 4,
    8, 8, 8, 4, 8, 8,
    8, 4, 8, 8, 4,
    4, 8, 4, 4,
    4, 4, 8, 4,
    8, 8, 8, 4, 8, 8,
    8, 4, 8, 8, 4,

    4, 8, 8, 8, 4, 8,
    8, 8, 8, 8, 8, 8, 8, 8,
    4, 4, 8, 4,
    2, 2,

    4, 8, 8, 8, 4, 8,
    8, 8, 8, 8, 8, 8, 8, 8,
    4, 4, 8, 4,
    2, 2,

    8, 4, 8, 8, 8, 4,
    8, 4, 8, 2,

    8, 4, 8, 8, 8, 8, 8,
    1,
    8, 4, 8, 8, 8, 4,
    8, 4, 8, 2,
    8, 8, 8, 8, 8, 8, 4,
    4, 4, 4, 4,
    4, 8, 4, 4,

    4, 4, 8, 4,
    8, 8, 8, 4, 8, 8,
    8, 4, 8, 8, 4,

    4, 8, 4, 4,
    4, 4, 8, 4,
    8, 8, 8, 4, 8, 8,
    8, 4, 8, 8, 4,

    8, 4, 8, 4, 4,
    8, 4, 8, 2,
    8, 8, 8, 8, 8, 8,

    8, 4, 8, 2,
    8, 4, 8, 4, 4,
    8, 4, 8, 2,
    8, 4, 8, 8, 8, 8,
    8, 4, 8, 2,

    8, 4, 8, 4, 4,
    8, 4, 8, 2,
    8, 8, 8, 8, 8, 8,

    8, 4, 8, 2,
    8, 4, 8, 4, 4,
    8, 4, 8, 2,
    8, 4, 8, 8, 8, 8,
    8, 4, 8, 2,
    8, 4, 8, 8, 8, 8, 8,
    1,

    8, 4, 8, 8, 8, 4,
    8, 4, 8, 2,
    8, 8, 8, 8, 8, 8, 4,
    4, 4, 4, 4,
    8, 4, 8, 4, 4,
    8, 4, 8, 2,
    8, 8, 8, 8, 8, 8,

    8, 4, 8, 2,
    8, 4, 8, 4, 4,
    8, 4, 8, 2,
    8, 4, 8, 8, 8, 8,
    8, 4, 8, 2,

    4, 4, 4,
    8, 8, 8, 8, 8, 8,
    8, 8, 2};

int mario_melody_size = sizeof(mario_melody) / sizeof(mario_melody[0]);

int pirates_melody[] = {
    NOTE_E4, NOTE_G4, NOTE_A4, NOTE_A4, REST,
    NOTE_A4, NOTE_B4, NOTE_C5, NOTE_C5, REST,
    NOTE_C5, NOTE_D5, NOTE_B4, NOTE_B4, REST,
    NOTE_A4, NOTE_G4, NOTE_A4, REST,

    NOTE_E4, NOTE_G4, NOTE_A4, NOTE_A4, REST,
    NOTE_A4, NOTE_B4, NOTE_C5, NOTE_C5, REST,
    NOTE_C5, NOTE_D5, NOTE_B4, NOTE_B4, REST,
    NOTE_A4, NOTE_G4, NOTE_A4, REST,

    NOTE_E4, NOTE_G4, NOTE_A4, NOTE_A4, REST,
    NOTE_A4, NOTE_C5, NOTE_D5, NOTE_D5, REST,
    NOTE_D5, NOTE_E5, NOTE_F5, NOTE_F5, REST,
    NOTE_E5, NOTE_D5, NOTE_E5, NOTE_A4, REST,

    NOTE_A4, NOTE_B4, NOTE_C5, NOTE_C5, REST,
    NOTE_D5, NOTE_E5, NOTE_A4, REST,
    NOTE_A4, NOTE_C5, NOTE_B4, NOTE_B4, REST,
    NOTE_C5, NOTE_A4, NOTE_B4, REST,

    NOTE_A4, NOTE_A4,
    NOTE_A4, NOTE_B4, NOTE_C5, NOTE_C5, REST,
    NOTE_C5, NOTE_D5, NOTE_B4, NOTE_B4, REST,
    NOTE_A4, NOTE_G4, NOTE_A4, REST,

    NOTE_E4, NOTE_G4, NOTE_A4, NOTE_A4, REST,
    NOTE_A4, NOTE_B4, NOTE_C5, NOTE_C5, REST,
    NOTE_C5, NOTE_D5, NOTE_B4, NOTE_B4, REST,
    NOTE_A4, NOTE_G4, NOTE_A4, REST,

    NOTE_E4, NOTE_G4, NOTE_A4, NOTE_A4, REST,
    NOTE_A4, NOTE_C5, NOTE_D5, NOTE_D5, REST,
    NOTE_D5, NOTE_E5, NOTE_F5, NOTE_F5, REST,
    NOTE_E5, NOTE_D5, NOTE_E5, NOTE_A4, REST,

    NOTE_A4, NOTE_B4, NOTE_C5, NOTE_C5, REST,
    NOTE_D5, NOTE_E5, NOTE_A4, REST,
    NOTE_A4, NOTE_C5, NOTE_B4, NOTE_B4, REST,
    NOTE_C5, NOTE_A4, NOTE_B4, REST,

    NOTE_E5, REST, REST, NOTE_F5, REST, REST,
    NOTE_E5, NOTE_E5, REST, NOTE_G5, REST, NOTE_E5, NOTE_D5, REST, REST,
    NOTE_D5, REST, REST, NOTE_C5, REST, REST,
    NOTE_B4, NOTE_C5, REST, NOTE_B4, REST, NOTE_A4,

    NOTE_E5, REST, REST, NOTE_F5, REST, REST,
    NOTE_E5, NOTE_E5, REST, NOTE_G5, REST, NOTE_E5, NOTE_D5, REST, REST,
    NOTE_D5, REST, REST, NOTE_C5, REST, REST,
    NOTE_B4, NOTE_C5, REST, NOTE_B4, REST, NOTE_A4};

int pirates_durations[] = {
    8, 8, 4, 8, 8,
    8, 8, 4, 8, 8,
    8, 8, 4, 8, 8,
    8, 8, 4, 8,

    8, 8, 4, 8, 8,
    8, 8, 4, 8, 8,
    8, 8, 4, 8, 8,
    8, 8, 4, 8,

    8, 8, 4, 8, 8,
    8, 8, 4, 8, 8,
    8, 8, 4, 8, 8,
    8, 8, 8, 4, 8,

    8, 8, 4, 8, 8,
    4, 8, 4, 8,
    8, 8, 4, 8, 8,
    8, 8, 4, 4,

    4, 8,
    8, 8, 4, 8, 8,
    8, 8, 4, 8, 8,
    8, 8, 4, 8,

    8, 8, 4, 8, 8,
    8, 8, 4, 8, 8,
    8, 8, 4, 8, 8,
    8, 8, 4, 8,

    8, 8, 4, 8, 8,
    8, 8, 4, 8, 8,
    8, 8, 4, 8, 8,
    8, 8, 8, 4, 8,

    8, 8, 4, 8, 8,
    4, 8, 4, 8,
    8, 8, 4, 8, 8,
    8, 8, 4, 4,

    4, 8, 4, 4, 8, 4,
    8, 8, 8, 8, 8, 8, 8, 8, 4,
    4, 8, 4, 4, 8, 4,
    8, 8, 8, 8, 8, 2,

    4, 8, 4, 4, 8, 4,
    8, 8, 8, 8, 8, 8, 8, 8, 4,
    4, 8, 4, 4, 8, 4,
    8, 8, 8, 8, 8, 2};

int pirates_melody_size = sizeof(pirates_melody) / sizeof(pirates_melody[0]);

int shape_melody[] = {
    NOTE_CS4, NOTE_E4, NOTE_CS4, NOTE_CS4, NOTE_E4,
    NOTE_CS4, NOTE_CS4, NOTE_E4, NOTE_CS4, NOTE_DS4,
    NOTE_CS4, NOTE_CS4, NOTE_E4, NOTE_CS4,
    NOTE_B3,
    NOTE_CS4, NOTE_E4, NOTE_CS4, NOTE_CS4, NOTE_E4,
    NOTE_CS4, NOTE_DS4, NOTE_CS4, NOTE_E4,
    NOTE_B3,
    NOTE_E4, NOTE_E4, NOTE_E4, NOTE_E4, NOTE_E4, NOTE_E4, NOTE_E4, NOTE_E4, NOTE_E4,
    NOTE_E4, NOTE_E4, NOTE_E4, NOTE_E4, NOTE_FS4, NOTE_GS4, NOTE_GS4,
    NOTE_GS4, NOTE_E4, NOTE_FS4, NOTE_B4, NOTE_GS4, NOTE_GS4, NOTE_GS4, NOTE_GS4, NOTE_GS4,
    NOTE_FS4, NOTE_FS4, NOTE_FS4, NOTE_GS4, NOTE_FS4, NOTE_FS4, NOTE_FS4, NOTE_FS4, NOTE_FS4, NOTE_GS4, NOTE_FS4,
    NOTE_E4, NOTE_CS4, NOTE_CS4, NOTE_GS4, NOTE_GS4,
    NOTE_GS4, NOTE_GS4, NOTE_GS4, NOTE_GS4, NOTE_GS4, NOTE_GS4, NOTE_GS4, NOTE_GS4, NOTE_GS4,
    NOTE_GS4, NOTE_B4, NOTE_GS4, NOTE_GS4, NOTE_FS4, NOTE_FS4, NOTE_E4, NOTE_GS4,
    NOTE_FS4, NOTE_E4, NOTE_E4, NOTE_E4, NOTE_B4, NOTE_GS4, NOTE_GS4, NOTE_GS4, NOTE_FS4,
    NOTE_FS4, NOTE_FS4, NOTE_FS4, NOTE_FS4, NOTE_FS4, NOTE_FS4, NOTE_FS4, NOTE_FS4,
    NOTE_E4, NOTE_CS4, NOTE_CS4, NOTE_CS4, NOTE_CS4, NOTE_CS4,
    NOTE_GS3, NOTE_B3,
    NOTE_CS4, NOTE_CS4, NOTE_FS4, NOTE_GS4, NOTE_E4, NOTE_FS4,
    NOTE_B3,
    NOTE_E4, NOTE_FS4, NOTE_GS4, NOTE_FS4, NOTE_E4, NOTE_CS4, NOTE_E4, NOTE_GS4,
    NOTE_FS4, NOTE_E4, NOTE_FS4, NOTE_CS4, NOTE_B4, NOTE_GS4, NOTE_GS4, NOTE_FS4, NOTE_FS4,
    NOTE_E4, NOTE_CS4, NOTE_E4, NOTE_FS4, NOTE_GS4, NOTE_FS4, NOTE_E4,
    NOTE_FS4, NOTE_E4, NOTE_CS4, NOTE_CS4,
    NOTE_B3,
    NOTE_CS4, NOTE_CS4, NOTE_FS4, NOTE_GS4, NOTE_E4, NOTE_FS4, NOTE_FS4,
    NOTE_B3,
    NOTE_FS4, NOTE_GS4, NOTE_FS4, NOTE_E4, NOTE_CS4, NOTE_E4, NOTE_GS4, NOTE_FS4,
    NOTE_E4, NOTE_FS4, NOTE_CS4, NOTE_B4, NOTE_GS4, NOTE_GS4, NOTE_FS4, NOTE_FS4, NOTE_E4,
    NOTE_CS4, NOTE_B4, NOTE_GS4, NOTE_GS4, NOTE_FS4, NOTE_FS4, NOTE_E4,
    NOTE_CS4, NOTE_CS4,
    NOTE_GS3, NOTE_B3,
    NOTE_E4, NOTE_FS4, NOTE_GS4, NOTE_FS4, NOTE_E4, NOTE_E4, NOTE_E4, NOTE_FS4, NOTE_FS4,
    NOTE_E4, NOTE_FS4, NOTE_GS4, NOTE_FS4, NOTE_E4, NOTE_E4, NOTE_E4, NOTE_FS4|
    NOTE_CS4, NOTE_E4, NOTE_FS4, NOTE_GS4, NOTE_CS4,
    NOTE_E4, NOTE_E4, NOTE_FS4, NOTE_FS4, NOTE_E4, NOTE_FS4, NOTE_GS4,
    NOTE_FS4, NOTE_E4, NOTE_E4, NOTE_FS4, NOTE_CS4, NOTE_CS4,
    NOTE_FS4, NOTE_GS4, NOTE_B4, NOTE_GS4, NOTE_FS4, NOTE_E4, NOTE_E4, NOTE_FS4,
    NOTE_E4, NOTE_FS4, NOTE_GS4, NOTE_FS4, NOTE_E4, NOTE_E4, NOTE_FS4,
    NOTE_CS4, NOTE_CS4, NOTE_CS4, NOTE_CS4, NOTE_CS4, NOTE_E4, NOTE_FS4, NOTE_GS4, NOTE_CS4, NOTE_E4,
    NOTE_FS4, NOTE_E4, NOTE_FS4, NOTE_E4, NOTE_FS4, NOTE_GS4,
    NOTE_FS4, NOTE_E4, NOTE_E4, NOTE_FS4, NOTE_CS4, NOTE_CS4, NOTE_CS4, NOTE_E4, NOTE_E4,
    NOTE_FS4, NOTE_FS4, NOTE_GS4, NOTE_GS4,
    NOTE_E4, NOTE_FS4, NOTE_GS4, NOTE_FS4, NOTE_E4, NOTE_E4, NOTE_FS4, NOTE_CS4, NOTE_CS4,
    NOTE_CS4, NOTE_E4, NOTE_E4, NOTE_FS4, NOTE_FS4, NOTE_GS4,
    NOTE_GS4, NOTE_E4, NOTE_FS4, NOTE_GS4, NOTE_FS4,
    NOTE_E4, NOTE_E4, NOTE_FS4, NOTE_CS4, NOTE_CS4, NOTE_CS4, NOTE_E4, NOTE_E4,
    NOTE_FS4, NOTE_FS4, NOTE_GS4, NOTE_GS4,
    NOTE_E4, NOTE_FS4, NOTE_GS4, NOTE_FS4, NOTE_E4, NOTE_E4, NOTE_FS4, NOTE_CS4, NOTE_CS4,
    NOTE_CS4, NOTE_CS4, NOTE_CS4, NOTE_CS4, NOTE_E4, NOTE_FS4, NOTE_GS4, NOTE_CS4, NOTE_E4, NOTE_FS4,
    NOTE_CS4,
};
      
int shape_durations[] = {
    2,2,4,2,2,4,2,2,4,2,2,2,2,2,2,2,2,4,2,2,4,2,2,2,2,8,8,4,4,8,8,8,8,8,8,8,2,8,8,4,2,8,8,4,8,8,8,
    4,4,8,8,8,8,8,4,8,4,8,8,8,8,4,2,8,8,8,8,4,8,8,8,8,8,8,2,8,4,8,8,8,8,8,2,4,8,8,2,4,8,8,8,8,8,8,
    2,8,8,4,4,4,8,8,2,4,4,2,4,2,2,4,8,8,8,2,2,8,4,8,4,4,4,4,8,8,8,8,2,8,8,4,8,8,4,2,8,4,8,4,4,4,4,
    2,2,2,2,4,8,8,8,2,2,2,4,8,4,4,4,4,8,8,8,8,2,8,8,4,8,8,4,2,8,8,4,8,8,4,2,2,4,2,8,8,4,8,8,4,8,8,
    2,8,8,4,8,8,4,8,8,2,8,8,4,4,4,8,8,2,8,8,4,8,8,8,4,8,2,4,4,8,8,4,4,8,2,8,8,4,4,4,8,8,4,8,8,8,8,
    8,8,4,4,4,4,8,2,8,8,4,8,8,8,4,8,4,4,4,4,4,4,4,2,8,8,4,8,8,8,4,8,4,4,4,4,4,4,4,2,8,8,4,8,8,8,4,
    8,4,4,4,4,4,4,4,2,8,8,4,8,8,8,4,8,4,8,8,8,8,8,8,4,4,4,4,2
};

int shape_melody_size = sizeof(shape_melody) / sizeof(shape_melody[0]);